HIERARCHY
ROOT Hips
{
  OFFSET 0 0 0
  CHANNELS 6 Xposition Yposition Zposition Zrotation Yrotation Xrotation
  JOINT LeftThigh
  {
    OFFSET 8.409438 0 -5.917753
    CHANNELS 3 Zrotation Yrotation Xrotation
    JOINT LeftLeg
    {
      OFFSET 0 0 -42.358652
      CHANNELS 3 Zrotation Yrotation Xrotation
      JOINT LeftFoot
      {
        OFFSET 0 0 -39.357303
        CHANNELS 3 Zrotation Yrotation Xrotation
      }
    }
  }
  JOINT RightThigh
  {
    OFFSET -8.409438 0 -5.917753
    CHANNELS 3 Zrotation Yrotation Xrotation
    JOINT RightLeg
    {
      OFFSET 0 0 -42.358652
      CHANNELS 3 Zrotation Yrotation Xrotation
      JOINT RightFoot
      {
        OFFSET 0 0 -39.357303
        CHANNELS 3 Zrotation Yrotation Xrotation
      }
    }
  }
  JOINT SpineLow
  {
    OFFSET 0 0 4.719101
    CHANNELS 3 Zrotation Yrotation Xrotation
    JOINT SpineMid
    {
      OFFSET 0 0 12.899191
      CHANNELS 3 Zrotation Yrotation Xrotation
      JOINT Chest
      {
        OFFSET 0 0 12.899191
        CHANNELS 3 Zrotation Yrotation Xrotation
        JOINT LeftShoulder
        {
          OFFSET 7.550562 1.41573 9.438202
          CHANNELS 3 Zrotation Yrotation Xrotation
          JOINT LeftArm
          {
            OFFSET 9.155056 0 4.247191
            CHANNELS 3 Zrotation Yrotation Xrotation
            JOINT LeftForearm
            {
              OFFSET 0 0 25.771955
              CHANNELS 3 Zrotation Yrotation Xrotation
              JOINT LeftHand
              {
                OFFSET 0 0 25.197169
                CHANNELS 3 Zrotation Yrotation Xrotation
              }
            }
          }
        }
        JOINT RightShoulder
        {
          OFFSET -7.550562 1.41573 9.438202
          CHANNELS 3 Zrotation Yrotation Xrotation
          JOINT RightArm
          {
            OFFSET -9.155056 0 4.247191
            CHANNELS 3 Zrotation Yrotation Xrotation
            JOINT RightForearm
            {
              OFFSET 0 0 -25.771955
              CHANNELS 3 Zrotation Yrotation Xrotation
              JOINT RightHand
              {
                OFFSET 0 0 -25.197169
                CHANNELS 3 Zrotation Yrotation Xrotation
              }
            }
          }
        }
        JOINT Neck
        {
          OFFSET 0 0 15.101124
          CHANNELS 3 Zrotation Yrotation Xrotation
          JOINT Head
          {
            OFFSET 0 0 11.325843
            CHANNELS 3 Zrotation Yrotation Xrotation
            End Site
            {
              OFFSET 0 0 14.157303
            }
          }
        }
      }
    }
  }
}
MOTION
Frames: 7
Frame Time: 0.0
0.0  101.685394  0.0  2.421907  14.594936  -112.662715  31.824531  -20.795559  -96.391974  46.027329  47.302064  122.71172  -10.307485  -5.582668  -4.570681  -28.992205  6.57607  -13.858954  10.369772  5.887774  33.015979  28.47376  0.837297  8.75283  -5.422636  2.842466  2.911811  -14.52523  8.365433  7.310851  -14.525229  8.365433  7.310852  2.438815  22.735557  22.513468  152.670847  63.226253  -165.932658  -57.821262  -40.322715  88.427996  87.525484  18.923177  10.748264  34.803222  -6.570062  34.554576  129.976173  50.439525  35.512363  -38.825228  38.556777  -76.910453  57.463538  -17.054752  42.82653  5.474838  -3.572767  -3.555631  4.084153  -2.71178  -2.634067  
0.0  101.685394  0.0  2.288534  14.63692  -112.60751  39.651714  -29.333764  -108.057315  66.453224  45.517075  134.465363  -9.400808  -5.720264  -4.376888  -29.468956  6.392976  -14.024054  10.616618  5.758749  33.421628  28.534027  1.04613  8.877306  -5.677311  2.587099  3.149135  -15.214151  7.752208  7.97936  -15.214151  7.752208  7.979361  3.60399  26.36955  22.1951  155.883138  59.820089  -161.724619  -63.736057  -46.257092  94.177026  101.086392  11.476101  11.953317  35.266707  -5.908682  36.235805  132.028998  46.122173  36.652643  -36.435027  38.001404  -72.687624  52.238211  -9.461309  42.447322  6.228738  -2.843685  -5.349398  4.646111  -2.187741  -3.982714  
0.0  101.685394  0.0  2.208553  14.809264  -112.568479  37.033156  -23.366578  -108.340763  60.945339  44.791423  133.711302  -9.222597  -5.463968  -3.88029  -28.759679  6.365478  -13.36062  10.071647  5.925437  33.57405  28.086671  1.179626  8.603785  -6.186347  2.281819  3.531982  -16.592218  7.076675  9.030197  -16.592219  7.076675  9.030196  5.202101  30.859164  20.801497  157.872934  56.882328  -157.401595  -71.952722  -55.699515  104.824282  95.048115  8.047894  9.830015  37.549002  -4.246038  36.767253  131.125953  42.897174  35.777916  -37.276118  29.965531  -75.341683  49.753107  7.561109  52.65462  7.820733  -1.737386  -7.531884  5.844741  -1.399952  -5.62734  
0.0  101.685394  0.0  1.910071  15.097596  -112.477449  36.010088  -20.244425  -108.128734  59.5114  44.754326  134.685665  -8.181925  -6.001986  -3.956964  -29.240566  6.212439  -13.710239  9.867012  5.897483  34.177797  28.321364  1.330618  8.677701  -6.887547  1.935378  4.056356  -18.492553  6.374025  10.46418  -18.492552  6.374025  10.464179  6.44302  35.310204  17.111839  160.835301  54.584103  -152.799423  -84.548738  -57.721265  119.083839  86.912317  11.019503  10.172818  41.162129  -1.031699  36.964275  129.434952  43.403493  36.430208  -34.311382  23.765544  -74.771417  58.80122  0.657028  63.216476  9.996943  -0.488568  -9.9277  7.492078  -0.5292  -7.440108  
0.0  101.685394  0.0  1.851949  15.083964  -112.041106  36.714174  -19.696029  -105.384153  59.152589  46.681443  133.837807  -7.841652  -6.422396  -3.905926  -29.211511  5.945934  -14.570321  9.689419  5.806965  35.011533  28.625142  1.431073  8.830969  -6.968342  1.758965  4.300602  -18.711163  5.97747  11.165579  -18.711163  5.97747  11.165578  5.614907  37.021882  14.656977  171.034788  50.407976  -143.840323  -76.358198  -54.255961  121.873823  82.010786  14.921079  0.015037  42.057655  -0.183032  37.412384  127.291981  44.465076  35.034397  -34.68439  32.010156  -73.796892  57.771396  -1.961207  61.690536  10.244795  -0.248868  -10.872295  7.68205  -0.369228  -8.152764  
0.0  101.685394  0.0  2.05703  14.527126  -114.174049  35.777863  -22.421764  -100.152381  57.283869  46.685218  130.808555  -9.162097  -6.206091  -3.922857  -28.629492  6.879653  -13.342405  9.908427  5.576249  35.993835  28.592339  1.602083  9.003553  -6.279666  1.968251  4.509992  -16.7777  6.483563  11.756126  -16.7777  6.483563  11.756126  3.862775  35.984572  16.082379  173.447203  50.607043  -142.863892  -69.30244  -45.100164  119.691678  76.737093  15.665085  -11.363118  39.090957  -2.339787  38.254892  123.042174  43.990327  31.383928  -33.393758  40.955764  -72.805305  56.190825  -3.843262  60.355632  8.316554  -1.151595  -9.872578  6.220532  -0.998597  -7.390144  
0.0  101.685394  0.0  2.28214  13.939078  -115.662715  33.864939  -25.25739  -96.508586  55.781271  44.45849  128.776529  -10.740263  -5.788788  -4.261837  -28.516108  7.481101  -12.761713  10.57198  5.100745  37.000341  28.442812  1.890644  9.174239  -5.69153  2.06996  4.573257  -15.148299  6.672116  11.971122  -15.148299  6.672116  11.971122  2.686545  34.752966  17.198719  174.251901  51.047118  -144.281758  -65.658572  -36.862444  119.455353  78.343558  13.255145  -15.400183  36.539516  -3.886477  38.991019  120.278154  43.820279  30.802759  -33.322053  45.407627  -73.993197  55.705072  -6.644725  60.089135  6.769544  -1.676117  -8.722919  5.054091  -1.35424  -6.524108  
